<svg width="164" height="40" viewBox="0 0 164 40" fill="none" xmlns="http://www.w3.org/2000/svg">
<path d="M58.2949 29V12.2H65.3855C66.379 12.2 67.2683 12.44 68.0535 12.92C68.8547 13.384 69.4876 14.024 69.9523 14.84C70.433 15.64 70.6734 16.544 70.6734 17.552C70.6734 18.592 70.433 19.528 69.9523 20.36C69.4876 21.176 68.8547 21.832 68.0535 22.328C67.2683 22.808 66.379 23.048 65.3855 23.048H61.7561V29H58.2949ZM61.732 19.904H65.025C65.6178 19.904 66.1146 19.688 66.5152 19.256C66.9318 18.808 67.1401 18.256 67.1401 17.6C67.1401 16.944 66.9318 16.408 66.5152 15.992C66.1146 15.56 65.6178 15.344 65.025 15.344H61.732V19.904Z" fill="white"/>
<path d="M79.0769 29.24C77.779 29.24 76.6252 28.96 75.6157 28.4C74.6062 27.824 73.813 27.04 73.2362 26.048C72.6593 25.056 72.3709 23.92 72.3709 22.64C72.3709 21.376 72.6593 20.248 73.2362 19.256C73.813 18.264 74.6062 17.488 75.6157 16.928C76.6252 16.352 77.779 16.064 79.0769 16.064C80.3428 16.064 81.4805 16.352 82.49 16.928C83.4995 17.488 84.2927 18.264 84.8695 19.256C85.4464 20.248 85.7348 21.376 85.7348 22.64C85.7348 23.92 85.4464 25.056 84.8695 26.048C84.2927 27.04 83.4995 27.824 82.49 28.4C81.4805 28.96 80.3428 29.24 79.0769 29.24ZM79.0769 26.384C79.7178 26.384 80.2947 26.224 80.8075 25.904C81.3202 25.568 81.7128 25.12 81.9852 24.56C82.2737 24 82.4179 23.36 82.4179 22.64C82.4179 21.92 82.2737 21.28 81.9852 20.72C81.7128 20.16 81.3202 19.72 80.8075 19.4C80.2947 19.08 79.7178 18.92 79.0769 18.92C78.4199 18.92 77.835 19.08 77.3223 19.4C76.8095 19.72 76.4089 20.16 76.1205 20.72C75.8321 21.28 75.6878 21.92 75.6878 22.64C75.6878 23.36 75.8321 24 76.1205 24.56C76.4089 25.12 76.8095 25.568 77.3223 25.904C77.835 26.224 78.4199 26.384 79.0769 26.384Z" fill="white"/>
<path d="M93.3514 29.24C92.2297 29.24 91.2282 28.96 90.3469 28.4C89.4656 27.824 88.7685 27.04 88.2558 26.048C87.759 25.056 87.5106 23.928 87.5106 22.664C87.5106 21.384 87.759 20.248 88.2558 19.256C88.7685 18.264 89.4656 17.488 90.3469 16.928C91.2282 16.352 92.2297 16.064 93.3514 16.064C94.1205 16.064 94.8496 16.216 95.5386 16.52C96.2437 16.824 96.8125 17.216 97.2452 17.696V11.24H100.538V29H97.4134L97.3653 27.488C96.9487 27.984 96.3799 28.4 95.6588 28.736C94.9377 29.072 94.1686 29.24 93.3514 29.24ZM94.0724 26.504C95.0499 26.504 95.8431 26.152 96.452 25.448C97.0609 24.728 97.3653 23.8 97.3653 22.664C97.3653 21.512 97.0609 20.584 96.452 19.88C95.8431 19.16 95.0499 18.8 94.0724 18.8C93.095 18.8 92.3018 19.16 91.6929 19.88C91.084 20.584 90.7795 21.512 90.7795 22.664C90.7795 23.8 91.084 24.728 91.6929 25.448C92.3018 26.152 93.095 26.504 94.0724 26.504Z" fill="white"/>
<path d="M109.371 29.24C108.169 29.24 107.087 28.952 106.126 28.376C105.181 27.8 104.427 27.016 103.867 26.024C103.322 25.032 103.049 23.904 103.049 22.64C103.049 21.392 103.322 20.272 103.867 19.28C104.427 18.288 105.181 17.504 106.126 16.928C107.087 16.352 108.169 16.064 109.371 16.064C110.509 16.064 111.542 16.272 112.471 16.688C113.417 17.104 114.154 17.688 114.683 18.44L112.88 20.6C112.544 20.136 112.079 19.744 111.486 19.424C110.893 19.088 110.292 18.92 109.683 18.92C109.01 18.92 108.409 19.088 107.881 19.424C107.368 19.744 106.959 20.184 106.655 20.744C106.366 21.304 106.222 21.936 106.222 22.64C106.222 23.344 106.374 23.976 106.679 24.536C106.983 25.096 107.4 25.544 107.929 25.88C108.457 26.2 109.05 26.36 109.707 26.36C110.332 26.36 110.909 26.224 111.438 25.952C111.967 25.664 112.447 25.264 112.88 24.752L114.683 26.912C114.138 27.616 113.385 28.184 112.423 28.616C111.462 29.032 110.444 29.24 109.371 29.24Z" fill="white"/>
<path d="M121.654 29.24C120.596 29.24 119.643 28.952 118.793 28.376C117.944 27.8 117.263 27.016 116.75 26.024C116.253 25.032 116.005 23.904 116.005 22.64C116.005 21.344 116.253 20.208 116.75 19.232C117.263 18.24 117.952 17.464 118.817 16.904C119.699 16.344 120.692 16.064 121.798 16.064C122.695 16.064 123.48 16.248 124.153 16.616C124.826 16.968 125.363 17.432 125.764 18.008V16.328H129.033V29H125.74V27.296C125.291 27.856 124.706 28.32 123.985 28.688C123.28 29.056 122.503 29.24 121.654 29.24ZM122.543 26.384C123.52 26.384 124.313 26.04 124.922 25.352C125.531 24.664 125.836 23.76 125.836 22.64C125.836 21.52 125.531 20.616 124.922 19.928C124.313 19.24 123.52 18.896 122.543 18.896C121.581 18.896 120.796 19.24 120.187 19.928C119.594 20.616 119.298 21.52 119.298 22.64C119.298 23.76 119.594 24.664 120.187 25.352C120.796 26.04 121.581 26.384 122.543 26.384Z" fill="white"/>
<path d="M136.735 29.24C135.565 29.24 134.523 29.048 133.61 28.664C132.696 28.28 131.959 27.736 131.399 27.032L133.466 25.28C133.946 25.808 134.491 26.192 135.1 26.432C135.709 26.656 136.326 26.768 136.951 26.768C137.448 26.768 137.848 26.656 138.153 26.432C138.457 26.208 138.609 25.896 138.609 25.496C138.609 25.144 138.465 24.864 138.177 24.656C137.888 24.464 137.199 24.224 136.11 23.936C134.491 23.52 133.345 22.952 132.672 22.232C132.08 21.592 131.783 20.8 131.783 19.856C131.783 19.104 132.007 18.448 132.456 17.888C132.905 17.312 133.498 16.864 134.235 16.544C134.972 16.224 135.773 16.064 136.638 16.064C137.632 16.064 138.569 16.24 139.451 16.592C140.332 16.944 141.069 17.424 141.662 18.032L139.883 19.976C139.435 19.56 138.914 19.216 138.321 18.944C137.744 18.656 137.207 18.512 136.71 18.512C135.557 18.512 134.98 18.912 134.98 19.712C134.996 20.096 135.172 20.4 135.509 20.624C135.829 20.848 136.558 21.112 137.696 21.416C139.218 21.816 140.292 22.344 140.917 23C141.462 23.56 141.734 24.304 141.734 25.232C141.734 26 141.51 26.688 141.061 27.296C140.628 27.904 140.035 28.384 139.282 28.736C138.529 29.072 137.68 29.24 136.735 29.24Z" fill="white"/>
<path d="M145.466 29V19.28H143.063V16.328H145.466V13.088H148.735V16.328H151.403V19.28H148.735V29H145.466Z" fill="white"/>
<path d="M153.605 29V16.328H156.778L156.826 18.416C157.242 17.728 157.787 17.168 158.46 16.736C159.149 16.288 159.87 16.064 160.623 16.064C160.912 16.064 161.176 16.088 161.416 16.136C161.673 16.168 161.889 16.216 162.065 16.28L161.176 19.88C161 19.784 160.776 19.704 160.503 19.64C160.231 19.576 159.958 19.544 159.686 19.544C158.901 19.544 158.236 19.816 157.691 20.36C157.162 20.888 156.898 21.56 156.898 22.376V29H153.605Z" fill="white"/>
<path d="M38.1819 19.8876C38.2064 23.0542 37.3955 26.1714 35.8308 28.9259C35.6281 29.2837 35.4135 29.6337 35.1868 29.9759C35.0748 30.1498 34.9293 30.2998 34.7587 30.4171C34.5882 30.5345 34.396 30.6169 34.1934 30.6595C33.9907 30.7021 33.7816 30.7041 33.5781 30.6655C33.3747 30.6268 33.1809 30.5482 33.0081 30.4341C32.8353 30.3201 32.6869 30.173 32.5715 30.0013C32.4561 29.8296 32.3759 29.6367 32.3357 29.4338C32.2955 29.231 32.2961 29.0222 32.3373 28.8195C32.3785 28.6168 32.4596 28.4243 32.5759 28.2532C34.0693 25.9897 34.9206 23.3644 35.0392 20.6564C35.1578 17.9484 34.5394 15.2589 33.2496 12.8738C31.9599 10.4887 30.047 8.49708 27.7143 7.11069C25.3816 5.7243 22.7163 4.99493 20.0017 5.0001C14.7838 5.01026 10.1574 7.74541 7.4682 11.8321C5.86063 14.2703 5.00519 17.1259 5.00797 20.045C5.01075 22.9641 5.87164 25.8182 7.48385 28.2532C7.71242 28.5991 7.79401 29.0216 7.71067 29.4275C7.62733 29.8335 7.38588 30.1898 7.03944 30.4181C6.693 30.6463 6.26996 30.7278 5.86336 30.6445C5.45677 30.5613 5.09994 30.3202 4.87137 29.9743C3.08371 27.2655 2.05689 24.1272 1.89805 20.887C1.73922 17.6468 2.45419 14.4235 3.96837 11.5533C5.48255 8.68306 7.74043 6.27121 10.5064 4.56941C13.2724 2.86761 16.4451 1.93822 19.6935 1.87822C19.8077 1.87588 19.9211 1.8751 20.0346 1.8751C24.8319 1.86523 29.4371 3.75637 32.8395 7.13341C36.2418 10.5105 38.1632 15.0975 38.1819 19.8876V19.8876Z" fill="white"/>
<path d="M9.07951 22.7944L11.9156 36.8819C12.0859 37.7276 12.9105 38.2753 13.7574 38.1053C14.6044 37.9353 15.1529 37.112 14.9827 36.2663L12.1466 22.1788C11.9763 21.3331 11.1517 20.7853 10.3048 20.9553C9.45782 21.1253 8.90925 21.9487 9.07951 22.7944Z" fill="#04D361"/>
<path d="M11.8615 36.5641L11.1424 36.7086C10.074 36.9234 8.96375 36.7225 8.03876 36.147C7.11376 35.5715 6.44393 34.6649 6.16625 33.6125C6.14513 33.5313 6.12557 33.45 6.10914 33.3672L5.0787 28.2555C4.85539 27.1459 5.08243 25.9931 5.70992 25.0506C6.33741 24.1081 7.31401 23.4528 8.42509 23.2289L9.14413 23.0844L10.4054 29.3407L11.8615 36.5641Z" fill="white"/>
<path d="M11.8615 36.5641L11.1424 36.7087C10.074 36.9235 8.96375 36.7226 8.03876 36.1471C7.11377 35.5715 6.44394 34.6649 6.16626 33.6126C7.6859 32.2982 9.10304 30.8701 10.4054 29.3407L11.8615 36.5641Z" fill="white"/>
<path d="M36.2016 27.0875L35.8307 28.9258C35.6281 29.2836 35.4134 29.6336 35.1868 29.9758C35.0747 30.1497 34.9292 30.2997 34.7587 30.4171C34.5881 30.5344 34.396 30.6168 34.1933 30.6594C33.9906 30.702 33.7815 30.7041 33.5781 30.6654C33.3746 30.6267 33.1809 30.5481 33.0081 30.4341C32.8353 30.3201 32.6869 30.1729 32.5714 30.0012C32.456 29.8295 32.3759 29.6366 32.3357 29.4338C32.2955 29.2309 32.296 29.0221 32.3372 28.8194C32.3785 28.6168 32.4596 28.4243 32.5759 28.2532C33.6366 26.6502 34.377 24.8577 34.7565 22.9742C35.3454 23.4669 35.7904 24.1089 36.0447 24.8327C36.299 25.5566 36.3532 26.3355 36.2016 27.0875Z" fill="white"/>
<path d="M34.3466 8.82973L32.1018 11.0711C30.7031 9.18252 28.8791 7.64894 26.7771 6.59429C24.6751 5.53965 22.3542 4.99352 20.0018 5.00005C14.7838 5.0102 10.1574 7.74536 7.46824 11.8321L5.19141 9.55864C6.83299 7.2294 9.00192 5.31987 11.5218 3.98529C14.0417 2.65072 16.8415 1.92878 19.6935 1.87817C19.8077 1.87583 19.9212 1.87505 20.0346 1.87505C22.7932 1.86887 25.5167 2.49226 27.9971 3.69759C30.4776 4.90292 32.6493 6.65832 34.3466 8.82973V8.82973Z" fill="#8257E5"/>
<path d="M27.8879 22.1635L25.0518 36.251C24.8815 37.0967 25.4301 37.9201 26.2771 38.0901C27.124 38.2601 27.9486 37.7123 28.1189 36.8667L30.955 22.7792C31.1252 21.9335 30.5767 21.1101 29.7297 20.9401C28.8828 20.7701 28.0582 21.3178 27.8879 22.1635Z" fill="#04D361"/>
<path d="M34.9811 28.2555L33.9507 33.3672C33.727 34.4768 33.071 35.4521 32.1271 36.0788C31.1832 36.7054 30.0286 36.932 28.9174 36.7086L28.1984 36.5641L28.9432 32.8711L30.9157 23.0844L31.6347 23.2289C32.7457 23.4531 33.7223 24.108 34.3505 25.05C34.437 25.1799 34.5161 25.3145 34.5876 25.4532C35.034 26.3154 35.1728 27.3039 34.9811 28.2555V28.2555Z" fill="white"/>
<path d="M34.9811 28.2555L33.9507 33.3673C33.727 34.4768 33.071 35.4522 32.1271 36.0788C31.1832 36.7054 30.0286 36.932 28.9174 36.7087L28.1984 36.5641L28.9432 32.8712C31.0867 30.6087 32.9792 28.1216 34.5876 25.4532C35.034 26.3155 35.1728 27.3039 34.9811 28.2555V28.2555Z" fill="white"/>
</svg>
