<svg width="32" height="32" viewBox="0 0 32 32" fill="none" xmlns="http://www.w3.org/2000/svg">
<path d="M11.2603 9.91781L9.61644 8.2831L8.32877 9.57078L9.96347 11.2055L11.2603 9.91781ZM8.73973 15.0868H6V16.9132H8.73973V15.0868ZM16.9589 6H15.1324V8.69406H16.9589V6V6ZM23.7626 9.57078L22.4749 8.2831L20.8402 9.91781L22.1279 11.2055L23.7626 9.57078ZM20.831 22.0822L22.4658 23.726L23.7534 22.4384L22.1096 20.8037L20.831 22.0822ZM23.3516 15.0868V16.9132H26.0913V15.0868H23.3516ZM16.0457 10.5205C13.0228 10.5205 10.5662 12.9772 10.5662 16C10.5662 19.0228 13.0228 21.4795 16.0457 21.4795C19.0685 21.4795 21.5251 19.0228 21.5251 16C21.5251 12.9772 19.0685 10.5205 16.0457 10.5205ZM15.1324 26H16.9589V23.3059H15.1324V26ZM8.32877 22.4292L9.61644 23.7169L11.2511 22.0731L9.96347 20.7854L8.32877 22.4292Z" fill="white"/>
</svg>
